<svg xmlns="http://www.w3.org/2000/svg" version="1.1" xmlns:xlink="http://www.w3.org/1999/xlink" xmlns:svgjs="http://svgjs.dev/svgjs" width="1000" height="623" viewBox="0 0 1000 623"><g transform="matrix(1,0,0,1,-0.6060359453913975,0.2522267206477409)"><svg viewBox="0 0 396 247" data-background-color="#ffffff" preserveAspectRatio="xMidYMid meet" height="623" width="1000" xmlns="http://www.w3.org/2000/svg" xmlns:xlink="http://www.w3.org/1999/xlink"><g id="tight-bounds" transform="matrix(1,0,0,1,0.239990234375,-0.09999999999999432)"><svg viewBox="0 0 395.52 247.2" height="247.2" width="395.52"><g><svg></svg></g><g><svg viewBox="0 0 395.52 247.2" height="247.2" width="395.52"><mask id="a9eaae99-bade-465f-88b3-69f767271110"><rect width="640" height="400" fill="white"></rect><rect width="348.05760000000004" height="47.8805149789091" fill="black" y="99.65974251054544" x="23.731199999999973" id="transform-me"></rect></mask><g transform="matrix(1,0,0,1,39.55199999999999,107.3379173553719)"><svg viewBox="0 0 316.416 32.5241652892562" height="32.5241652892562" width="316.416"><g><svg viewBox="0 0 316.416 32.5241652892562" height="32.5241652892562" width="316.416"><g><svg viewBox="0 0 316.416 32.5241652892562" height="32.5241652892562" width="316.416"><g id="textblocktransform"><svg viewBox="0 0 316.416 32.5241652892562" height="32.5241652892562" width="316.416" id="textblock"><g><svg viewBox="0 0 316.416 32.5241652892562" height="32.5241652892562" width="316.416"><g transform="matrix(1,0,0,1,0,0)"><svg width="316.416" viewBox="2.9000000953674316 -35.04999923706055 387.17999267578125 39.79999923706055" height="32.5241652892562" data-palette-color="url(#6a9754bf-52a5-4896-9410-e846d54ed42d)"><g class="wordmark-text-0" data-fill-palette-color="primary" id="text-0"></g></svg></g></svg></g></svg></g></svg></g><g></g></svg></g></svg></g><g mask="url(#a9eaae99-bade-465f-88b3-69f767271110)"><g transform="matrix(7.992959379322342, 0, 0, 7.992959379322342, 37.895781444705534, 1)"><svg xmlns="http://www.w3.org/2000/svg" xmlns:xlink="http://www.w3.org/1999/xlink" version="1.1" x="0" y="0" viewBox="4.999369144439697 9.660999298095703 40.001258850097656 30.676998138427734" enable-background="new 0 0 50 50" xml:space="preserve" height="30.676998138427734" width="40.001258850097656" class="icon-none" data-fill-palette-color="accent" id="none"></svg></g></g></svg></g><defs></defs><mask id="ebfeb829-700e-4350-b477-c77a34ac4154"><g id="SvgjsG4304"><svg viewBox="0 0 395.52 247.2" height="247.2" width="395.52"><g><svg></svg></g><g><svg viewBox="0 0 395.52 247.2" height="247.2" width="395.52"><mask id="SvgjsMask4303"></mask><g transform="matrix(1,0,0,1,39.55199999999999,107.3379173553719)"><svg viewBox="0 0 316.416 32.5241652892562" height="32.5241652892562" width="316.416"><g><svg viewBox="0 0 316.416 32.5241652892562" height="32.5241652892562" width="316.416"><g><svg viewBox="0 0 316.416 32.5241652892562" height="32.5241652892562" width="316.416"><g id="SvgjsG4301"><svg viewBox="0 0 316.416 32.5241652892562" height="32.5241652892562" width="316.416" id="SvgjsSvg4300"><g><svg viewBox="0 0 316.416 32.5241652892562" height="32.5241652892562" width="316.416"><g transform="matrix(1,0,0,1,0,0)"><svg width="316.416" viewBox="2.9000000953674316 -35.04999923706055 387.17999267578125 39.79999923706055" height="32.5241652892562" data-palette-color="url(#6a9754bf-52a5-4896-9410-e846d54ed42d)"><g class="wordmark-text-0" data-fill-palette-color="primary" id="SvgjsG4299"><path d="M8.7 0.15Q8.2 0.15 7.9 0.05L7.9 0.05 6.9 0.05 6 0.05 5.65 0.05 3.4-0.5 3.2-0.9Q3.15-0.9 3.15-1.45L3.15-1.45Q3.15-2.15 3.1-2.6L3.1-2.6 3.05-4.9Q3-5.65 3-7.15L3-7.15 2.9-11Q2.9-12.25 3-14.45L3-14.45 3.05-16.15Q3.15-17.75 3.15-21.4L3.15-21.4 3.15-21.75 3.15-22.4Q3.05-22.55 3.05-22.95L3.05-22.95 3-23.3Q3-24.55 3.15-25.9L3.15-25.9Q3.25-27.6 3.25-29L3.25-29 3.2-30.4Q3.15-30.95 3.15-31.7L3.15-31.7Q3.15-31.75 3.08-31.85 3-31.95 3-32.05L3-32.05Q3-32.55 3.4-32.9 3.8-33.25 4.4-33.4L4.4-33.4Q5.2-33.65 6.45-33.65L6.45-33.65 14.9-33.65 18.8-33.65Q18.85-33.65 18.95-33.55 19.05-33.45 19.15-33.4L19.15-33.4Q19.55-33.05 20.15-32.05L20.15-32.05Q20.3-31.75 20.48-31.38 20.65-31 20.95-30.2L20.95-30.2Q21.3-29.4 21.9-27.75L21.9-27.75 22.5-26.2Q22.9-25.45 23.4-24.05L23.4-24.05Q23.55-23.65 23.73-23.25 23.9-22.85 24.05-22.45L24.05-22.45Q24.15-22.1 24.28-21.93 24.4-21.75 24.4-21.7L24.4-21.7Q24.75-20.9 25.15-20.9L25.15-20.9Q25.65-20.9 25.95-21.7L25.95-21.7Q26-21.75 26.05-21.93 26.1-22.1 26.3-22.5L26.3-22.5 27.05-24.15 29.05-28.4 29.9-30.2Q30.05-30.6 30.13-30.88 30.2-31.15 30.3-31.25L30.3-31.25Q30.5-31.7 31.25-32.8L31.25-32.8Q31.5-33.2 31.7-33.4L31.7-33.4Q31.85-33.45 31.9-33.55 31.95-33.65 32.05-33.65L32.05-33.65 35.95-33.65 44.4-33.65 45.15-33.65 45.65-33.65 46.3-33.65 47.4-33.65Q47.5-33.65 47.65-32.9L47.65-32.9 47.8-28Q47.9-25.9 47.9-21.4L47.9-21.4 47.9-18.5Q47.9-16.8 47.75-14.7 47.6-12.6 47.55-12L47.55-12 47.45-11 47.45-9.25Q47.5-8.55 47.5-7.15L47.5-7.15Q47.5-5.65 47.55-4.9L47.55-4.9Q47.55-3.45 47.65-2.9L47.65-2.9 47.65-1.45 47.65-0.9 47.5-0.5 45.25 0.05 44.9 0.05 44 0.05 43 0.05Q42.65 0.15 42.15 0.15L42.15 0.15Q41.25 0.15 39.65 0.05L39.65 0.05 38.4 0Q38.05-0.05 37.6-0.1 37.15-0.15 36.5-0.15L36.5-0.15 34.55-0.3Q34.45-0.3 34.4-0.25L34.4-0.25 34-0.25Q33.75-0.25 33.7-0.8L33.7-0.8Q33.4-1.8 33.4-4.2L33.4-4.2Q33.4-5.8 33.35-6.7L33.35-6.7 33.3-9.4Q33.25-10.3 33.25-12L33.25-12Q33.25-12.4 32.9-12.4L32.9-12.4Q32.7-12.4 32.5-11.9L32.5-11.9 31.95-10.55 31.5-9.3Q31.4-9 31.3-8.7 31.2-8.4 31.05-8.15L31.05-8.15 30.8-7.55Q30.35-6.55 29.65-5.3L29.65-5.3Q28.9-3.95 27.8-3.15L27.8-3.15Q27.2-2.8 26.75-2.8L26.75-2.8 26-2.8Q25.4-2.8 25-2.9L25-2.9 23.9-2.9 22.9-2.9Q20.9-6.1 19.15-9.9L19.15-9.9 18.4-11.75Q18.1-12.4 18-12.4L18-12.4Q17.65-12.4 17.65-12L17.65-12 17.65-9.65Q17.65-6.15 17.55-4.5L17.55-4.5Q17.45-1.9 17.2-0.9L17.2-0.9Q17.15-0.25 16.9-0.25L16.9-0.25 16.55-0.25 16.3-0.3Q14.6-0.2 13.6-0.1L13.6-0.1Q13-0.05 11.5 0.05 10 0.15 8.7 0.15L8.7 0.15ZM73.65 4.75L73.65 4.45Q73.65 4.45 73.57 4.45 73.5 4.45 73.45 4.5L73.45 4.5 73.3 4.55Q73.15 4.55 73.15 4.45L73.15 4.45Q72.95 4.35 72.9 4.15L72.9 4.15Q71.15 3.85 70.65 3.65L70.65 3.65 68.9 3.15 68.65 3.15Q68.4 3.15 68.25 3.05L68.25 3.05Q67.8 3.05 67.5 2.95L67.5 2.95Q67.1 2.9 66.2 2.6 65.3 2.3 64.9 2.15L64.9 2.15Q64.1 1.9 62.6 1.3L62.6 1.3Q61.9 1 61.55 0.9L61.55 0.9 60.4 0.2Q60-0.1 60-0.4L60-0.4Q60-1.35 60.45-2.4L60.45-2.4Q60.6-2.75 60.87-3.25 61.15-3.75 61.4-4.4L61.4-4.4Q61.5-4.7 61.95-5.3L61.95-5.3Q63.15-7.3 63.25-7.5L63.25-7.5Q63.45-8.05 63.45-8.5L63.45-8.5Q63.45-9.25 62.65-10.05L62.65-10.05Q61.9-10.8 61.9-11.5L61.9-11.5Q61.65-11.5 61.65-11.45L61.65-11.45 61.55-11.45 61.5-11.45Q61.4-11.55 61.4-11.65L61.4-11.65Q59.8-13.65 58.15-16.5L58.15-16.5Q56.05-19.8 54.75-22.5L54.75-22.5Q54.35-23.1 53.8-24.65L53.8-24.65Q53.15-26 52.7-27.4L52.7-27.4Q52.15-28.95 52.15-29.4L52.15-29.4Q52.15-29.9 53.25-30.7L53.25-30.7Q53.7-31 54.3-31.3 54.9-31.6 55.2-31.75L55.2-31.75Q55.45-31.8 57.3-32.3L57.3-32.3 58-32.55Q58.2-32.7 58.45-32.7L58.45-32.7Q58.75-32.7 59.4-32.9L59.4-32.9Q60.85-33.2 61.1-33.3L61.1-33.3 62.9-33.7Q64.4-34.2 64.65-34.25L64.65-34.25 64.75-34.3 64.9-34.3 65-34.3Q66.05-34.3 66.4-33.8L66.4-33.8Q66.7-33.5 67.4-32.4L67.4-32.4Q67.5-32.1 67.77-31.7 68.05-31.3 68.15-31.2L68.15-31.2 68.55-30.65 68.9-30.25Q69.1-30 69.3-29.65 69.5-29.3 69.75-28.9L69.75-28.9Q71.05-26.6 71.75-25.65L71.75-25.65Q72.2-25 72.5-25L72.5-25Q72.65-25 73-25.55L73-25.55Q73.45-26.25 74.65-28.75L74.65-28.75Q75.3-30.35 76.2-32.4L76.2-32.4Q76.65-33.3 76.7-33.5L76.7-33.5Q76.9-34.4 77.15-34.65L77.15-34.65Q77.4-35.05 78.05-35.05L78.05-35.05Q79.65-35.05 82.25-34.4L82.25-34.4Q84.8-33.65 87.15-32.45L87.15-32.45Q89.55-31.15 90.4-30.05L90.4-30.05Q90.4-28.7 89.75-27.55L89.75-27.55 85.15-17.4 80.65-7.2 80.45-7.15Q80.4-7.15 80.3-7.05L80.3-7.05Q77-0.6 74.25 4.55L74.25 4.55Q74.15 4.75 73.65 4.75L73.65 4.75ZM109.1 1.15Q105.2 1.15 102.1-0.65L102.1-0.65Q98.6-2.35 96.35-6.25L96.35-6.25Q93.85-10.65 93.85-16.65L93.85-16.65Q93.85-20.9 95.35-24.3 96.85-27.7 99.65-30.05L99.65-30.05Q102.4-32.35 106.1-33.55 109.8-34.75 114.15-34.75L114.15-34.75Q120.55-34.75 127.34-31.5L127.34-31.5 125.4-23Q125.05-23.1 124.57-23.25 124.09-23.4 123.5-23.55L123.5-23.55Q120.75-24.25 119.45-24.45L119.45-24.45Q118.25-24.65 117.5-24.65L117.5-24.65Q114.35-24.65 112.7-22.95L112.7-22.95Q110.75-21 110.75-16.4L110.75-16.4Q110.75-12.2 112-10.4L112-10.4Q113.05-8.7 115.1-8.7L115.1-8.7Q116.4-8.7 118.1-9.4L118.1-9.4Q118.1-10.2 118-11.8L118-11.8 117.95-12.9Q117.9-14.05 117.9-16.3L117.9-16.3 117.9-17.65Q117.9-18.1 118.05-18.28 118.2-18.45 118.6-18.45L118.6-18.45Q118.75-18.4 119.45-18.4L119.45-18.4 124.75-18.4Q127.09-18.4 127.84-18.45L127.84-18.45Q129.19-18.45 129.59-18.4L129.59-18.4Q130.25-18.25 130.47-17.93 130.69-17.6 130.69-16.9L130.69-16.9Q130.69-16.65 130.75-16.45L130.75-16.45 130.75-16 130.75-15.2 130.75-13.7 130.75-8.65 130.75-8.4Q130.69-8.2 130.65-7.95 130.6-7.7 130.6-7.4L130.6-7.4 130.6-7.15Q130.6-4 130.5-2.75L130.5-2.75Q130.4-0.7 130.15-0.15L130.15-0.15Q128.84-0.15 128.19-0.05L128.19-0.05 127.09 0 126.95 0Q126.5 0 126.45-0.05L126.45-0.05Q126.4-0.1 126.37-0.13 126.34-0.15 126.34-0.15L126.34-0.15 126.2-0.15Q126.15-0.1 126.12-0.05 126.09 0 126.09 0L126.09 0 121.1 0 120.85 0 120.35 0 119.75 0Q119.6 0.05 119.35 0.05L119.35 0.05Q119.15 0.05 119-0.25L119-0.25Q118.65-1.15 118.6-2.4L118.6-2.4Q118.5-3 118.4-4.15L118.4-4.15Q117.95-1.6 115.25-0.2L115.25-0.2Q112.8 1.15 109.1 1.15L109.1 1.15ZM136.74 0.05Q136.09 0.05 135.84-0.95L135.84-0.95Q135.79-1.1 135.79-1.45L135.79-1.45Q135.79-1.95 135.99-2.95L135.99-2.95Q136.09-3.6 136.17-3.98 136.24-4.35 136.29-4.55L136.29-4.55Q137.79-11.6 139.24-16.95L139.24-16.95 142.74-32.75Q142.74-32.85 142.89-33.05 143.04-33.25 143.24-33.3L143.24-33.3 143.49-33.3Q143.49-33.25 143.64-33.25L143.64-33.25Q144.24-33.25 144.99-33.4L144.99-33.4Q145.74-33.55 146.34-33.55L146.34-33.55Q147.44-33.55 148.39-33.4L148.39-33.4Q148.84-33.4 149.39-33.35 149.94-33.3 150.54-33.3L150.54-33.3Q150.74-33.3 150.99-33.4L150.99-33.4 151.89-33.4 153.04-33.4 154.24-33.45Q154.59-33.5 155.09-33.5L155.09-33.5Q155.49-33.5 155.49-33.55L155.49-33.55 156.29-33.55 157.99-33.55 160.09-33.55Q162.89-33.55 163.79-33.45L163.79-33.45Q163.94-33.45 164.22-33.43 164.49-33.4 164.54-33.3L164.54-33.3Q164.89-33.3 165.24-33.35 165.59-33.4 165.89-33.4L165.89-33.4Q166.59-33.55 167.24-33.55L167.24-33.55Q167.54-33.55 167.84-33.4L167.84-33.4Q168.14-33.25 168.49-33.25L168.49-33.25 168.74-33.3 168.89-33.3Q169.04-33.2 169.22-33.02 169.39-32.85 169.39-32.75L169.39-32.75 172.89-16.95Q174.49-11.1 175.79-4.55L175.79-4.55Q175.79-4.25 175.99-3.9L175.99-3.9Q176.04-3.55 176.14-2.95 176.24-2.35 176.24-1.95L176.24-1.95Q176.29-1.75 176.29-1.4L176.29-1.4Q176.29-0.7 175.99-0.25L175.99-0.25Q175.79 0.05 175.39 0.05L175.39 0.05 174.74 0.05Q173.99 0.05 173.59 0L173.59 0 172.29 0 171.04 0 170.04 0Q169.64 0 169.64-0.05L169.64-0.05 166.49-0.05 166.49-0.15Q166.29-0.25 165.99-0.25L165.99-0.25Q165.99-0.25 165.97-0.23 165.94-0.2 165.89-0.15L165.89-0.15Q165.89-0.05 165.79-0.05L165.79-0.05 165.64-0.05 165.24-0.05Q164.99-0.15 164.24-0.15L164.24-0.15Q162.74-0.25 161.89-0.25L161.89-0.25Q161.59-0.7 161.27-2.05 160.94-3.4 160.59-5.05L160.59-5.05Q160.49-5.85 160.39-6.15L160.39-6.15Q159.34-5.95 157.64-5.95L157.64-5.95 156.09-5.95 154.64-5.95 154.29-4.35Q153.64-1.05 153.24-0.25L153.24-0.25Q153.04-0.25 152.74-0.15L152.74-0.15Q152.64-0.1 152.57-0.08 152.49-0.05 152.49-0.05L152.49-0.05 152.29-0.05Q151.99-0.05 151.84-0.15L151.84-0.15Q151.74-0.25 151.59-0.25L151.59-0.25 149.34-0.15 148.54-0.15 147.79-0.15Q147.59-0.05 147.29-0.05L147.29-0.05 147.09-0.05 142.49-0.05 142.04-0.05Q141.49 0 139.79 0L139.79 0 138.49 0Q138.09 0.05 137.34 0.05L137.34 0.05 136.74 0.05ZM159.84-12.2Q159.49-14.65 159.49-14.65L159.49-14.65Q159.34-15.35 158.99-17.3L158.99-17.3Q158.89-17.8 158.49-20L158.49-20Q158.09-22.4 158.09-22.4L158.09-22.4Q157.94-23.4 157.79-24.15L157.79-24.15 157.74-24.8Q157.59-25.05 157.59-25.25L157.59-25.25 157.54-25.55Q157.49-25.45 157.49-25.25L157.49-25.25Q157.49-25.05 157.39-25L157.39-25 157.39-24.8 157.29-24.15Q157.24-23.8 157.17-23.38 157.09-22.95 156.99-22.45L156.99-22.45 156.74-21.05Q156.19-17.9 156.09-17.4L156.09-17.4Q156.04-16.85 155.84-15.75L155.84-15.75Q155.74-15.4 155.64-14.7L155.64-14.7 155.24-12.4 157.79-12.4 158.14-12.5 158.24-12.5Q158.84-12.5 159.14-12.4L159.14-12.4Q159.34-12.4 159.52-12.33 159.69-12.25 159.84-12.2L159.84-12.2ZM187.69 0.15Q187.19 0.15 186.89 0.05L186.89 0.05 185.89 0.05 184.99 0.05 184.64 0.05 182.39-0.5 182.19-0.9Q182.14-0.9 182.14-1.45L182.14-1.45Q182.14-2.15 182.09-2.6L182.09-2.6 182.04-4.9Q181.99-5.65 181.99-7.15L181.99-7.15 181.89-11Q181.89-12.25 181.99-14.45L181.99-14.45 182.04-16.15Q182.14-17.75 182.14-21.4L182.14-21.4 182.14-21.75 182.14-22.4Q182.04-22.55 182.04-22.95L182.04-22.95 181.99-23.3Q181.99-24.55 182.14-25.9L182.14-25.9Q182.24-27.6 182.24-29L182.24-29 182.19-30.4Q182.14-30.95 182.14-31.7L182.14-31.7Q182.14-31.75 182.07-31.85 181.99-31.95 181.99-32.05L181.99-32.05Q181.99-32.55 182.39-32.9 182.79-33.25 183.39-33.4L183.39-33.4Q184.19-33.65 185.44-33.65L185.44-33.65 193.89-33.65 197.79-33.65Q197.84-33.65 197.94-33.55 198.04-33.45 198.14-33.4L198.14-33.4Q198.54-33.05 199.14-32.05L199.14-32.05Q199.29-31.75 199.47-31.38 199.64-31 199.94-30.2L199.94-30.2Q200.29-29.4 200.89-27.75L200.89-27.75 201.49-26.2Q201.89-25.45 202.39-24.05L202.39-24.05Q202.54-23.65 202.72-23.25 202.89-22.85 203.04-22.45L203.04-22.45Q203.14-22.1 203.27-21.93 203.39-21.75 203.39-21.7L203.39-21.7Q203.74-20.9 204.14-20.9L204.14-20.9Q204.64-20.9 204.94-21.7L204.94-21.7Q204.99-21.75 205.04-21.93 205.09-22.1 205.29-22.5L205.29-22.5 206.04-24.15 208.04-28.4 208.89-30.2Q209.04-30.6 209.12-30.88 209.19-31.15 209.29-31.25L209.29-31.25Q209.49-31.7 210.24-32.8L210.24-32.8Q210.49-33.2 210.69-33.4L210.69-33.4Q210.84-33.45 210.89-33.55 210.94-33.65 211.04-33.65L211.04-33.65 214.94-33.65 223.39-33.65 224.14-33.65 224.64-33.65 225.29-33.65 226.39-33.65Q226.49-33.65 226.64-32.9L226.64-32.9 226.79-28Q226.89-25.9 226.89-21.4L226.89-21.4 226.89-18.5Q226.89-16.8 226.74-14.7 226.59-12.6 226.54-12L226.54-12 226.44-11 226.44-9.25Q226.49-8.55 226.49-7.15L226.49-7.15Q226.49-5.65 226.54-4.9L226.54-4.9Q226.54-3.45 226.64-2.9L226.64-2.9 226.64-1.45 226.64-0.9 226.49-0.5 224.24 0.05 223.89 0.05 222.99 0.05 221.99 0.05Q221.64 0.15 221.14 0.15L221.14 0.15Q220.24 0.15 218.64 0.05L218.64 0.05 217.39 0Q217.04-0.05 216.59-0.1 216.14-0.15 215.49-0.15L215.49-0.15 213.54-0.3Q213.44-0.3 213.39-0.25L213.39-0.25 212.99-0.25Q212.74-0.25 212.69-0.8L212.69-0.8Q212.39-1.8 212.39-4.2L212.39-4.2Q212.39-5.8 212.34-6.7L212.34-6.7 212.29-9.4Q212.24-10.3 212.24-12L212.24-12Q212.24-12.4 211.89-12.4L211.89-12.4Q211.69-12.4 211.49-11.9L211.49-11.9 210.94-10.55 210.49-9.3Q210.39-9 210.29-8.7 210.19-8.4 210.04-8.15L210.04-8.15 209.79-7.55Q209.34-6.55 208.64-5.3L208.64-5.3Q207.89-3.95 206.79-3.15L206.79-3.15Q206.19-2.8 205.74-2.8L205.74-2.8 204.99-2.8Q204.39-2.8 203.99-2.9L203.99-2.9 202.89-2.9 201.89-2.9Q199.89-6.1 198.14-9.9L198.14-9.9 197.39-11.75Q197.09-12.4 196.99-12.4L196.99-12.4Q196.64-12.4 196.64-12L196.64-12 196.64-9.65Q196.64-6.15 196.54-4.5L196.54-4.5Q196.44-1.9 196.19-0.9L196.19-0.9Q196.14-0.25 195.89-0.25L195.89-0.25 195.54-0.25 195.29-0.3Q193.59-0.2 192.59-0.1L192.59-0.1Q191.99-0.05 190.49 0.05 188.99 0.15 187.69 0.15L187.69 0.15ZM236.74 0Q236.49 0 235.99-0.08 235.49-0.15 234.79-0.2L234.79-0.2 233.74-0.45Q233.49-0.5 233.36-0.58 233.24-0.65 233.29-0.7L233.29-0.7Q233.29-2 233.14-4.15L233.14-4.15Q233.14-4.9 233.09-5.48 233.04-6.05 232.99-6.45L232.99-6.45 232.89-8.6Q232.89-9.45 232.79-10.75L232.79-10.75 232.74-12.3Q232.74-14.2 232.69-15.25L232.69-15.25Q232.64-16.3 232.64-19.65L232.64-19.65Q232.64-22.8 232.69-26.15 232.74-29.5 232.99-32.5L232.99-32.5Q232.99-33.05 234.19-33.4L234.19-33.4Q234.94-33.5 236.69-33.5L236.69-33.5Q240.74-33.5 242.64-33.65L242.64-33.65Q248.54-33.75 251.54-33.75L251.54-33.75 253.74-33.75Q257.84-33.65 260.04-33.45L260.04-33.45Q260.84-33.45 261.19-31.55L261.19-31.55Q261.34-31.2 261.54-29.75L261.54-29.75Q261.69-29 261.94-27.9L261.94-27.9Q261.99-27.6 261.96-27.33 261.94-27.05 261.94-27L261.94-27Q261.89-26.5 261.39-26.5L261.39-26.5Q261.19-26.55 260.79-26.55L260.79-26.55Q258.69-26.55 255.64-26.2L255.64-26.2 252.99-26Q251.34-25.8 250.39-25.75L250.39-25.75Q250.24-25.75 249.99-25.15L249.99-25.15Q249.79-24.5 249.54-22.15L249.54-22.15 249.44-20.9Q249.44-20.25 249.59-20.08 249.74-19.9 250.24-19.9L250.24-19.9 254.69-19.9Q256.64-19.9 259.14-19.65L259.14-19.65 259.74-19.65Q260.39-19.5 260.54-19.15L260.54-19.15Q260.74-18.85 260.79-18.5L260.79-18.5 260.99-14.05 260.99-13.9Q260.99-13.05 259.19-12.9L259.19-12.9Q258.14-12.65 255.19-12.65L255.19-12.65Q252.64-12.65 251.89-12.7L251.89-12.7Q250.44-12.7 250.14-12.65L250.14-12.65Q249.59-12.5 249.44-12.08 249.29-11.65 249.29-10.65L249.29-10.65Q249.29-10 249.19-8.8L249.19-8.8Q249.14-8.2 249.14-6.9L249.14-6.9Q252.39-6.9 253.94-7L253.94-7Q255.64-7.15 258.74-7.15L258.74-7.15Q258.94-7.15 259.14-6.8L259.14-6.8Q259.39-6.3 259.94-4.55L259.94-4.55Q260.24-3.55 260.54-2.05L260.54-2.05Q260.64-1.7 260.64-1.3L260.64-1.3Q260.64-0.25 259.64-0.25L259.64-0.25Q258.34-0.25 256.14-0.15L256.14-0.15Q254.99-0.05 252.54-0.05L252.54-0.05Q247.29-0.05 244.64 0L244.64 0 236.74 0ZM283.54 0Q278.39 0 276.04-0.05L276.04-0.05Q273.89-0.05 272.74-0.1L272.74-0.1 268.64-0.15Q268.19-0.15 267.79-0.55L267.79-0.55Q267.39-0.95 267.39-1.4L267.39-1.4 267.39-12.4 267.39-17.2 267.34-21.3Q267.34-23.35 267.44-26.45L267.44-26.45Q267.44-27.1 267.59-29.8L267.59-29.8 267.59-30.95Q267.59-32.35 268.14-33.2L268.14-33.2Q268.39-33.65 268.94-33.65L268.94-33.65Q271.39-33.65 274.29-33.55L274.29-33.55Q274.69-33.5 275.44-33.5L275.44-33.5Q277.09-33.5 277.89-33.45L277.89-33.45 280.59-33.45Q280.79-33.45 281.76-33.45 282.74-33.45 283.29-33.2L283.29-33.2Q284.19-32.7 284.19-30.9L284.19-30.9 284.14-30.5Q284.14-30.35 284.04-29.75L284.04-29.75Q283.89-29 283.89-28.65L283.89-28.65Q283.89-28.1 284.04-27.25L284.04-27.25Q284.14-26.65 284.14-26.45L284.14-26.45 284.19-26.15 284.19-19.15 284.19-15.9 284.19-12.8 284.19-12.2Q284.19-11.8 284.64-11.7L284.64-11.7Q284.79-11.65 285.29-11.65L285.29-11.65 288.94-11.65Q290.29-11.7 293.04-11.7L293.04-11.7Q293.59-11.7 293.94-11.38 294.29-11.05 294.29-10.7L294.29-10.7 294.29-1.15 294.29-1.05Q294.29-0.65 293.89-0.4L293.89-0.4Q293.44-0.2 292.84-0.15L292.84-0.15Q292.19 0 290.79 0L290.79 0 283.54 0ZM300.03 0.05Q299.68 0.05 299.38-0.23 299.08-0.5 298.93-0.95L298.93-0.95Q298.73-1.85 298.63-2.95L298.63-2.95Q298.58-3.3 298.58-3.9L298.58-3.9 298.58-4.55 298.63-10.75Q298.63-13.9 298.78-16.95L298.78-16.95 298.78-32.75Q298.78-33.25 299.43-33.25L299.43-33.25Q302.88-33.25 304.58-33.3L304.58-33.3 309.58-33.3Q309.73-33.3 309.83-33.35 309.93-33.4 310.08-33.4L310.08-33.4Q310.73-33.5 311.88-33.45L311.88-33.45Q312.73-33.45 313.68-33.3L313.68-33.3Q313.98-33.1 314.13-33.2L314.13-33.2Q314.23-33.2 314.53-33.3L314.53-33.3Q315.28-33.3 315.71-33.2 316.13-33.1 316.38-32.75L316.38-32.75Q316.63-32.3 316.78-31.65L316.78-31.65Q316.83-31.15 316.83-29.55L316.83-29.55 316.83-19.8 316.83-19.05Q316.78-18.65 316.78-17.25L316.78-17.25Q316.78-15.75 316.68-14.9L316.68-14.9 316.63-12.65Q316.58-11.9 316.58-10.75L316.58-10.75 316.53-9.95 316.53-6.75Q316.53-3.75 316.28-1.65L316.28-1.65Q316.28-0.95 315.93-0.25L315.93-0.25Q315.03-0.25 313.33-0.15L313.33-0.15Q312.53-0.15 312.28-0.05L312.28-0.05 311.78-0.05 311.63-0.05Q311.28-0.05 311.28-0.15L311.28-0.15Q310.88-0.25 310.83-0.25L310.83-0.25 310.43-0.05 305.83-0.05Q305.78 0 305.03 0L305.03 0 303.13 0 301.28 0 300.03 0.05ZM336.43 1.2Q332.88 1.2 329.28 0.4L329.28 0.4Q325.73-0.45 323.43-1.9L323.43-1.9Q322.83-3.7 322.53-5.5 322.23-7.3 321.78-10.65L321.78-10.65 321.78-10.8Q321.88-11.4 322.43-11.7L322.43-11.7Q324.33-10.55 326.08-9.98 327.83-9.4 329.93-9.4L329.93-9.4 331.13-9.4 331.93-9.35Q333.08-9.35 334.28-9.7L334.28-9.7Q334.93-9.95 335.18-10.65L335.18-10.65 332.53-11.95Q329.48-13.4 327.03-15.05L327.03-15.05Q324.48-16.9 323.38-19.75L323.38-19.75Q322.83-21.3 322.83-23.15L322.83-23.15Q322.83-27.65 325.58-30.4L325.58-30.4Q327.98-32.85 332.08-33.9L332.08-33.9Q335.63-34.75 339.88-34.75L339.88-34.75Q342.38-34.75 346.78-34.2L346.78-34.2Q347.23-34.1 348.03-34L348.03-34 349.53-33.7Q351.23-33.4 352.03-33.4L352.03-33.4Q352.08-33.4 352.21-33.25 352.33-33.1 352.43-33L352.43-33Q352.63-32.65 352.83-32.65L352.83-32.65 352.88-32.65 352.93-32.65 353.03-31.6Q353.03-30.85 353.18-30L353.18-30Q353.33-28.75 353.33-27.3L353.33-27.3Q353.33-26.05 353.18-25.5L353.18-25.5Q352.93-24.5 352.28-24.05L352.28-24.05 347.63-24.65 347.13-24.65 346.43-24.65Q344.73-24.65 342.53-24.3L342.53-24.3 340.88-23.95Q340.28-23.85 340.28-23.75L340.28-23.75Q340.28-22.55 341.83-21.5L341.83-21.5Q342.58-21.1 343.33-20.83 344.08-20.55 344.28-20.45L344.28-20.45Q347.98-19.4 350.68-16.8L350.68-16.8Q351.93-15.6 352.63-14.25 353.33-12.9 353.33-11.65L353.33-11.65Q353.33-10.9 353.13-10.05L353.13-10.05Q352.78-6.3 350.28-3.55L350.28-3.55Q347.83-1.1 344.13 0.05L344.13 0.05Q340.93 1.2 336.43 1.2L336.43 1.2ZM366.73 0.05Q366.03 0.05 365.68-0.9L365.68-0.9Q364.93-2.55 364.93-6.9L364.93-6.9Q364.93-11.1 365.08-16.55L365.08-16.55Q365.13-18.3 365.13-21.95L365.13-21.95 364.98-22.15 359.43-22.15Q358.78-22.15 358.4-22.88 358.03-23.6 357.83-24.9L357.83-24.9Q357.58-26.4 357.58-29.2L357.58-29.2 357.58-29.9Q357.58-30.4 357.63-30.7L357.63-30.7 357.63-31.45 357.63-31.9Q357.63-32.2 357.93-32.43 358.23-32.65 358.63-32.75L358.63-32.75Q359.13-32.9 360.13-32.9L360.13-32.9 363.93-32.9Q365.18-32.9 365.83-32.85L365.83-32.85 367.68-32.8 385.68-32.8Q387.63-32.8 388.23-32.75L388.23-32.75Q388.48-32.7 388.93-32.65 389.38-32.6 389.58-32.45L389.58-32.45Q389.93-32.3 390-32.08 390.08-31.85 390.08-31.4L390.08-31.4 390.08-23.15Q390.08-22.6 389.63-22.4L389.63-22.4Q389.33-22.3 388.83-22.3L388.83-22.3 387.23-22.3 385.58-22.3Q384.43-22.3 383.83-22.4L383.83-22.4 382.33-22.4Q381.88-22.4 381.83-22.2L381.83-22.2Q381.83-22.15 381.78-22.08 381.73-22 381.73-21.9L381.73-21.9 381.73-21.15 381.73-19.45Q381.73-18.7 381.68-18.3L381.68-18.3Q381.68-16.85 381.48-11.95L381.48-11.95 381.38-10.45Q381.28-8.35 381.18-7.4L381.18-7.4 381.18-2.65Q381.18-0.95 380.48-0.5L380.48-0.5Q379.83-0.25 379.58-0.2L379.58-0.2 378.33-0.15Q376.38-0.15 375.58-0.05L375.58-0.05 370.33 0Q369.33 0.05 366.73 0.05L366.73 0.05Z" fill="white"></path></g></svg></g></svg></g></svg></g></svg></g><g></g></svg></g></svg></g><g mask="url(#a9eaae99-bade-465f-88b3-69f767271110)"><g transform="matrix(7.992959379322342, 0, 0, 7.992959379322342, 37.895781444705534, 1)"><svg xmlns="http://www.w3.org/2000/svg" xmlns:xlink="http://www.w3.org/1999/xlink" version="1.1" x="0" y="0" viewBox="4.999369144439697 9.660999298095703 40.001258850097656 30.676998138427734" enable-background="new 0 0 50 50" xml:space="preserve" height="30.676998138427734" width="40.001258850097656" class="icon-none" data-fill-palette-color="accent" id="SvgjsSvg4298"></svg></g></g></svg></g><defs></defs></svg></g></mask><linearGradient x1="0" x2="1" y1="0.578" y2="0.595" id="6a9754bf-52a5-4896-9410-e846d54ed42d"><stop stop-color="#6ee2f5" offset="0"></stop><stop stop-color="#6454f0" offset="1"></stop></linearGradient><rect width="395.52001953125" height="247.1999969482422" fill="url(#6a9754bf-52a5-4896-9410-e846d54ed42d)" mask="url(#ebfeb829-700e-4350-b477-c77a34ac4154)" data-fill-palette-color="primary"></rect><mask id="a40f4ffb-e93e-4381-a21e-f1cc35b6673e"><g id="SvgjsG4317"><svg viewBox="0 0 395.52 247.2" height="247.2" width="395.52"><g><svg></svg></g><g><svg viewBox="0 0 395.52 247.2" height="247.2" width="395.52"><mask id="SvgjsMask4316"></mask><g transform="matrix(1,0,0,1,39.55199999999999,107.3379173553719)"><svg viewBox="0 0 316.416 32.5241652892562" height="32.5241652892562" width="316.416"><g><svg viewBox="0 0 316.416 32.5241652892562" height="32.5241652892562" width="316.416"><g><svg viewBox="0 0 316.416 32.5241652892562" height="32.5241652892562" width="316.416"><g id="SvgjsG4314"><svg viewBox="0 0 316.416 32.5241652892562" height="32.5241652892562" width="316.416" id="SvgjsSvg4313"><g><svg viewBox="0 0 316.416 32.5241652892562" height="32.5241652892562" width="316.416"><g transform="matrix(1,0,0,1,0,0)"><svg width="316.416" viewBox="2.9000000953674316 -35.04999923706055 387.17999267578125 39.79999923706055" height="32.5241652892562" data-palette-color="url(#6a9754bf-52a5-4896-9410-e846d54ed42d)"><g class="wordmark-text-0" data-fill-palette-color="primary" id="SvgjsG4312"></g></svg></g></svg></g></svg></g></svg></g><g></g></svg></g></svg></g><g mask="url(#a9eaae99-bade-465f-88b3-69f767271110)"><g transform="matrix(7.992959379322342, 0, 0, 7.992959379322342, 37.895781444705534, 1)"><svg xmlns="http://www.w3.org/2000/svg" xmlns:xlink="http://www.w3.org/1999/xlink" version="1.1" x="0" y="0" viewBox="4.999369144439697 9.660999298095703 40.001258850097656 30.676998138427734" enable-background="new 0 0 50 50" xml:space="preserve" height="30.676998138427734" width="40.001258850097656" class="icon-none" data-fill-palette-color="accent" id="SvgjsSvg4311"><g fill="white"><path fill-rule="evenodd" clip-rule="evenodd" d="M18.983 16.028c0.83 0 1.506-0.674 1.506-1.506v-1.935c0-0.832-0.676-1.506-1.506-1.506-0.831 0-1.504 0.674-1.504 1.506v1.935C17.479 15.354 18.152 16.028 18.983 16.028z" fill="white"></path><path fill-rule="evenodd" clip-rule="evenodd" d="M23.067 16.028c0.859 0 1.557-0.699 1.557-1.557V11.96c0-0.861-0.697-1.556-1.557-1.556-0.861 0-1.559 0.695-1.559 1.556v2.512C21.508 15.329 22.206 16.028 23.067 16.028z" fill="white"></path><path fill-rule="evenodd" clip-rule="evenodd" d="M27.188 16.028c0.796 0 1.439-0.645 1.439-1.438v-3.297c0-0.8-0.644-1.441-1.439-1.441-0.794 0-1.44 0.641-1.44 1.441v3.297C25.748 15.383 26.394 16.028 27.188 16.028z" fill="white"></path><path fill-rule="evenodd" clip-rule="evenodd" d="M31.203 16.028c0.847 0 1.535-0.685 1.535-1.532v-2.302c0-0.843-0.688-1.531-1.535-1.531-0.843 0-1.527 0.688-1.527 1.531v2.302C29.676 15.344 30.36 16.028 31.203 16.028z" fill="white"></path><path fill-rule="evenodd" clip-rule="evenodd" d="M43.505 18.046c-0.592-4.057-3.506-5.632-3.506-5.632-0.004-0.634-0.354-2.753-3.03-2.753-4.094 0-3.621 2.519-3.621 2.519h-0.202v0.627h0.202l0.73-0.011-0.115-0.724c0-0.021-0.075-0.53 0.311-0.977 0.446-0.529 1.384-0.807 2.695-0.807 2.266 0 2.399 1.776 2.403 2.133l0.003 0.371 0.324 0.173c0.029 0.018 2.646 1.47 3.182 5.17 0.555 3.816 1.402 9.059 1.488 9.606 0 0.292-0.036 2.244-1.124 3.358-0.522 0.536-1.196 0.796-2.068 0.796-0.627 0-1.344-0.141-2.133-0.411-1.362-0.817-3.409-4.111-4.086-5.321l-0.296-0.53h-1.751c-0.007-0.015-0.007-0.031-0.015-0.043l-2.529-3.927c-0.169-0.267-0.468-0.429-0.785-0.429h-5.313c-0.157 0-0.297 0.094-0.36 0.234-0.92 2.058 1.001 2.62 1.001 2.62h3.352c0 0 0.282 0.831 0.459 1.546H15.342l-0.297 0.53c-0.681 1.21-2.728 4.504-4.086 5.321-0.793 0.271-1.51 0.411-2.133 0.411-0.87 0-1.547-0.26-2.068-0.796-1.086-1.114-1.128-3.066-1.128-3.358 0.088-0.548 0.935-5.791 1.49-9.606 0.539-3.7 3.155-5.152 3.182-5.17l0.324-0.173 0.004-0.371c0.003-0.357 0.135-2.133 2.403-2.133 1.313 0 2.247 0.278 2.699 0.807 0.382 0.447 0.308 0.955 0.304 0.977l-0.113 0.724 0.731 0.011h0.402V12.18h-0.402c0 0 0.474-2.519-3.621-2.519-2.677 0-3.025 2.119-3.03 2.753 0 0-2.913 1.575-3.506 5.632C5.907 22.1 5 27.691 5 27.691s-0.194 6.612 6.221 4.367c1.47-0.832 3.432-4.18 4.12-5.344h0.577c0.72 5.395 6.793 7.318 6.793 7.318v1.308h-3.767v4.998h12.143V35.42h-2.039v-1.858c0 0 0.94-0.289 2.796-2.252 1.282-1.352 1.352-3.413 1.271-4.595h1.546c0.685 1.164 2.648 4.512 4.115 5.344C45.194 34.304 45 27.691 45 27.691S44.096 22.1 43.505 18.046zM24.91 30.344c-0.331-1.492 0.265-2.785 0.831-3.629h2.114C26.3 27.36 25.391 29.187 24.91 30.344z" fill="white"></path><path fill-rule="evenodd" clip-rule="evenodd" d="M36.788 18.284c0.544 0 0.987-0.439 0.987-0.98 0-0.548-0.443-0.987-0.987-0.987s-0.987 0.439-0.987 0.987C35.801 17.844 36.244 18.284 36.788 18.284z" fill="white"></path><path fill-rule="evenodd" clip-rule="evenodd" d="M36.788 22.507c0.544 0 0.987-0.443 0.987-0.984 0-0.548-0.443-0.987-0.987-0.987s-0.987 0.439-0.987 0.987C35.801 22.063 36.244 22.507 36.788 22.507z" fill="white"></path><path fill-rule="evenodd" clip-rule="evenodd" d="M39.883 19.412c0-0.548-0.442-0.987-0.983-0.987-0.548 0-0.987 0.439-0.987 0.987 0 0.544 0.439 0.983 0.987 0.983C39.44 20.395 39.883 19.956 39.883 19.412z" fill="white"></path><path fill-rule="evenodd" clip-rule="evenodd" d="M35.664 19.412c0-0.548-0.439-0.987-0.987-0.987-0.54 0-0.983 0.439-0.983 0.987 0 0.544 0.443 0.983 0.983 0.983C35.225 20.395 35.664 19.956 35.664 19.412z" fill="white"></path><path fill-rule="evenodd" clip-rule="evenodd" d="M13.133 22.236h0.676c0.299 0 0.542-0.241 0.542-0.544v-1.488h1.486c0.301 0 0.542-0.241 0.542-0.537v-0.681c0-0.295-0.241-0.541-0.542-0.541h-1.486v-1.488c0-0.299-0.244-0.54-0.542-0.54h-0.676c-0.301 0-0.542 0.241-0.542 0.54v1.488h-1.49c-0.297 0-0.54 0.245-0.54 0.541v0.681c0 0.295 0.243 0.537 0.54 0.537h1.49v1.488C12.591 21.995 12.832 22.236 13.133 22.236z" fill="white"></path></g></svg></g></g></svg></g><defs></defs><mask><g id="SvgjsG4310"><svg viewBox="0 0 395.52 247.2" height="247.2" width="395.52"><g><svg></svg></g><g><svg viewBox="0 0 395.52 247.2" height="247.2" width="395.52"><mask id="SvgjsMask4309"></mask><g transform="matrix(1,0,0,1,39.55199999999999,107.3379173553719)"><svg viewBox="0 0 316.416 32.5241652892562" height="32.5241652892562" width="316.416"><g><svg viewBox="0 0 316.416 32.5241652892562" height="32.5241652892562" width="316.416"><g><svg viewBox="0 0 316.416 32.5241652892562" height="32.5241652892562" width="316.416"><g id="SvgjsG4308"><svg viewBox="0 0 316.416 32.5241652892562" height="32.5241652892562" width="316.416" id="SvgjsSvg4307"><g><svg viewBox="0 0 316.416 32.5241652892562" height="32.5241652892562" width="316.416"><g transform="matrix(1,0,0,1,0,0)"><svg width="316.416" viewBox="2.9000000953674316 -35.04999923706055 387.17999267578125 39.79999923706055" height="32.5241652892562" data-palette-color="url(#6a9754bf-52a5-4896-9410-e846d54ed42d)"><g class="wordmark-text-0" data-fill-palette-color="primary" id="SvgjsG4306"></g></svg></g></svg></g></svg></g></svg></g><g></g></svg></g></svg></g><g mask="url(#a9eaae99-bade-465f-88b3-69f767271110)"><g transform="matrix(7.992959379322342, 0, 0, 7.992959379322342, 37.895781444705534, 1)"><svg xmlns="http://www.w3.org/2000/svg" xmlns:xlink="http://www.w3.org/1999/xlink" version="1.1" x="0" y="0" viewBox="4.999369144439697 9.660999298095703 40.001258850097656 30.676998138427734" enable-background="new 0 0 50 50" xml:space="preserve" height="30.676998138427734" width="40.001258850097656" class="icon-none" data-fill-palette-color="accent" id="SvgjsSvg4305"></svg></g></g></svg></g><defs></defs></svg></g></mask></svg></g></mask><linearGradient x1="0.054" x2="0.941" y1="0.5" y2="0.5" id="48323faa-fe8c-4f77-98da-a0192d8b5b5e"><stop stop-color="#9c7945" offset="0"></stop><stop stop-color="#faf3aa" offset="0.498"></stop><stop stop-color="#9c7945" offset="1"></stop></linearGradient><rect width="395.52001953125" height="247.1999969482422" fill="url(#48323faa-fe8c-4f77-98da-a0192d8b5b5e)" mask="url(#a40f4ffb-e93e-4381-a21e-f1cc35b6673e)" data-fill-palette-color="accent"></rect></svg><rect width="395.52" height="247.2" fill="none" stroke="none" visibility="hidden"></rect></g></svg></g></svg>